<?xml version="1.0" encoding="UTF-8"?> <svg xmlns="http://www.w3.org/2000/svg" id="Layer_1" data-name="Layer 1" viewBox="0 0 511.75 91.56"><title>Imagination_Logo_Secondary_Blk</title><polygon points="146.64 36.4 146.64 76.5 155.58 76.5 155.58 27.45 146.64 36.4"></polygon><path d="M374.68,260.48a13.59,13.59,0,0,0-11.89,5.76,12.34,12.34,0,0,0-10.61-5.76c-6.37,0-8.89,3.18-9.59,4.39h-.14v-3.13h-8.1v36.8h8.81V280.18c0-3.93,0-11.62,7-11.62,5.45,0,7.38,4.53,7.38,9.57v20.41h8.83V280.18c0-2.32-.07-6,1.34-8.17a7.13,7.13,0,0,1,6.09-3.45c6.94,0,6.94,7.43,6.94,9.57v20.41h8.83V277.07c0-5.45-1.31-9-2.79-10.88-1.31-1.85-4.91-5.71-12.12-5.71" transform="translate(-173.34 -221.98)"></path><path d="M413.12,291.64c-6.3,0-10.93-5.11-10.93-11.34,0-5.48,3.7-11.75,10.93-11.75,5.23,0,10.76,3.86,10.76,11.5,0,6.82-4.66,11.59-10.76,11.59m11-25.24H424a15.67,15.67,0,0,0-12.23-5.92c-10.18,0-18.42,8.17-18.42,19.45,0,12.25,8.42,19.8,17.92,19.8A18.14,18.14,0,0,0,424.11,294v4.57h8.11v-36.8h-8.11Z" transform="translate(-173.34 -221.98)"></path><path d="M455.91,291.65c-5.35,0-11-4.32-11-11.81a11,11,0,0,1,10.77-11.28c6.55,0,10.79,6,10.79,11.22,0,7.34-5.21,11.87-10.56,11.87m10.83-25.41h-.14c-1-1.47-4.17-5.76-11.73-5.76a19.11,19.11,0,0,0-18.76,19.3c0,12.32,9.88,20,18.83,20,7.49,0,10.87-4.22,12.06-5.92l.14.16c-.47,8-6.31,11.46-11.26,11.46a11.3,11.3,0,0,1-9.12-4.1H436.71c3.16,8.22,10.93,12.2,18.49,12.2,7,0,20.11-4,20.11-21.75v-30h-8.57Z" transform="translate(-173.34 -221.98)"></path><path d="M513.2,260.44a13.85,13.85,0,0,0-10.07,4.44V261.7H495v36.8h8.83V281c0-3.08,0-6.93,1.6-9.2a7.54,7.54,0,0,1,6-3.24c7.43,0,7.43,8.75,7.43,11.81V298.5h8.81V278.6c0-2.85,0-9-3.4-13.07a15,15,0,0,0-11.07-5.09" transform="translate(-173.34 -221.98)"></path><path d="M551.33,291.61c-6.29,0-10.93-5.11-10.93-11.35,0-5.48,3.7-11.75,10.93-11.75,5.26,0,10.76,3.87,10.76,11.5,0,6.82-4.64,11.6-10.76,11.6m11-25.25h-.13a15.69,15.69,0,0,0-12.2-5.92c-10.22,0-18.45,8.17-18.45,19.45,0,12.26,8.43,19.8,17.93,19.8a18.14,18.14,0,0,0,12.85-5.76v4.57h8.11V261.7h-8.11Z" transform="translate(-173.34 -221.98)"></path><polygon points="414.7 27.45 405.86 27.45 405.86 39.73 401.55 39.73 401.55 47.56 405.86 47.56 405.86 76.52 414.7 76.52 414.7 47.56 420.01 47.56 420.01 39.73 414.7 39.73 414.7 27.45"></polygon><path d="M629.37,291.61c-5.57,0-10.81-4.53-10.81-11.47a11.27,11.27,0,0,1,10.81-11.61c5.51,0,10.7,5,10.7,11.66,0,5.85-4.27,11.42-10.7,11.42m0-31.17a19.63,19.63,0,0,0,0,39.25A19.19,19.19,0,0,0,648.88,280a19.46,19.46,0,0,0-19.51-19.57" transform="translate(-173.34 -221.98)"></path><path d="M670.63,260.44a13.81,13.81,0,0,0-10.07,4.44V261.7h-8.17v36.8h8.83V281c0-3.08,0-6.93,1.59-9.2a7.58,7.58,0,0,1,6-3.24c7.43,0,7.43,8.75,7.43,11.81V298.5h8.81V278.6c0-2.85,0-9-3.4-13.07a14.94,14.94,0,0,0-11.06-5.09" transform="translate(-173.34 -221.98)"></path><rect x="307.33" y="39.73" width="8.89" height="36.83"></rect><rect x="423.94" y="39.73" width="8.89" height="36.83"></rect><path d="M244.7,240.7a39.38,39.38,0,0,1,2.85,8.59h45.82v49.32H244.05V257.5c0-.06,0-.11,0-.16s0-.1,0-.15v-.87a35.07,35.07,0,0,0-4.14-15.62h0a35.38,35.38,0,1,0-8.7,43.9V271.82a26.75,26.75,0,1,1,4.28-14.63v50H302V240.7Z" transform="translate(-173.34 -221.98)"></path></svg> 